<svg id="visual" viewBox="0 0 900 600" width="900" height="600" xmlns="http://www.w3.org/2000/svg" xmlns:xlink="http://www.w3.org/1999/xlink" version="1.1"><rect x="0" y="0" width="900" height="600" fill="#000306"></rect><path d="M0 460L25 448.8C50 437.7 100 415.3 150 415.5C200 415.7 250 438.3 300 440.5C350 442.7 400 424.3 450 421.7C500 419 550 432 600 436.7C650 441.3 700 437.7 750 429.7C800 421.7 850 409.3 875 403.2L900 397L900 601L875 601C850 601 800 601 750 601C700 601 650 601 600 601C550 601 500 601 450 601C400 601 350 601 300 601C250 601 200 601 150 601C100 601 50 601 25 601L0 601Z" fill="#fa7268"></path><path d="M0 419L25 422.5C50 426 100 433 150 441.8C200 450.7 250 461.3 300 467.3C350 473.3 400 474.7 450 466C500 457.3 550 438.7 600 433.8C650 429 700 438 750 436.5C800 435 850 423 875 417L900 411L900 601L875 601C850 601 800 601 750 601C700 601 650 601 600 601C550 601 500 601 450 601C400 601 350 601 300 601C250 601 200 601 150 601C100 601 50 601 25 601L0 601Z" fill="#f56967"></path><path d="M0 449L25 455C50 461 100 473 150 477.5C200 482 250 479 300 473C350 467 400 458 450 451.2C500 444.3 550 439.7 600 438.5C650 437.3 700 439.7 750 449.2C800 458.7 850 475.3 875 483.7L900 492L900 601L875 601C850 601 800 601 750 601C700 601 650 601 600 601C550 601 500 601 450 601C400 601 350 601 300 601C250 601 200 601 150 601C100 601 50 601 25 601L0 601Z" fill="#ef5f67"></path><path d="M0 461L25 461C50 461 100 461 150 463.5C200 466 250 471 300 472C350 473 400 470 450 468.7C500 467.3 550 467.7 600 469.5C650 471.3 700 474.7 750 476.7C800 478.7 850 479.3 875 479.7L900 480L900 601L875 601C850 601 800 601 750 601C700 601 650 601 600 601C550 601 500 601 450 601C400 601 350 601 300 601C250 601 200 601 150 601C100 601 50 601 25 601L0 601Z" fill="#e95667"></path><path d="M0 516L25 516.3C50 516.7 100 517.3 150 512.5C200 507.7 250 497.3 300 492C350 486.7 400 486.3 450 491.8C500 497.3 550 508.7 600 510C650 511.3 700 502.7 750 495.7C800 488.7 850 483.3 875 480.7L900 478L900 601L875 601C850 601 800 601 750 601C700 601 650 601 600 601C550 601 500 601 450 601C400 601 350 601 300 601C250 601 200 601 150 601C100 601 50 601 25 601L0 601Z" fill="#e34c67"></path><path d="M0 521L25 520.2C50 519.3 100 517.7 150 519.2C200 520.7 250 525.3 300 527.8C350 530.3 400 530.7 450 529.8C500 529 550 527 600 526.3C650 525.7 700 526.3 750 524.5C800 522.7 850 518.3 875 516.2L900 514L900 601L875 601C850 601 800 601 750 601C700 601 650 601 600 601C550 601 500 601 450 601C400 601 350 601 300 601C250 601 200 601 150 601C100 601 50 601 25 601L0 601Z" fill="#dc4267"></path><path d="M0 540L25 537C50 534 100 528 150 526.2C200 524.3 250 526.7 300 528C350 529.3 400 529.7 450 528.5C500 527.3 550 524.7 600 522.8C650 521 700 520 750 521.3C800 522.7 850 526.3 875 528.2L900 530L900 601L875 601C850 601 800 601 750 601C700 601 650 601 600 601C550 601 500 601 450 601C400 601 350 601 300 601C250 601 200 601 150 601C100 601 50 601 25 601L0 601Z" fill="#d53867"></path><path d="M0 555L25 554.3C50 553.7 100 552.3 150 552.7C200 553 250 555 300 554.8C350 554.7 400 552.3 450 553.3C500 554.3 550 558.7 600 559C650 559.3 700 555.7 750 553.3C800 551 850 550 875 549.5L900 549L900 601L875 601C850 601 800 601 750 601C700 601 650 601 600 601C550 601 500 601 450 601C400 601 350 601 300 601C250 601 200 601 150 601C100 601 50 601 25 601L0 601Z" fill="#ce2e68"></path><path d="M0 564L25 565.2C50 566.3 100 568.7 150 570C200 571.3 250 571.7 300 570.8C350 570 400 568 450 568C500 568 550 570 600 569.2C650 568.3 700 564.7 750 564C800 563.3 850 565.7 875 566.8L900 568L900 601L875 601C850 601 800 601 750 601C700 601 650 601 600 601C550 601 500 601 450 601C400 601 350 601 300 601C250 601 200 601 150 601C100 601 50 601 25 601L0 601Z" fill="#c62368"></path></svg>